General
Complete name      :Catwoman 2004[Dual Audio[ENG-HINDI]~Sehrawat.Vkas3385.mkv
Format                           : Matroska
File size                        : 1.49 GiB
Duration                         : 1h 40mn
Overall bit rate                 : 2 134 Kbps
Encoded date                     : UTC 2010-07-28 05:40:33
Writing application              : mkvmerge v4.1.1 ('Bouncin' Back') built on Jul  3 2010 22:54:08
Writing library                  : libebml v1.0.0 + libmatroska v1.0.0

Video
ID                               : 1
Format                           : AVC
Format/Info                      : Advanced Video Codec
Format profile                   : High@L4.1
Format settings, CABAC           : Yes
Format settings, ReFrames        : 8 frames
Muxing mode                      : Container profile=Unknown@4.1
Codec ID                         : V_MPEG4/ISO/AVC
Duration                         : 1h 40mn
Bit rate                         : 1 800 Kbps
Width                            : 1 280 pixels
Height                           : 528 pixels
Display aspect ratio             : 2.40:1
Frame rate                       : 25.000 fps
Original frame rate              : 23.976 fps
Color space                      : YUV
Chroma subsampling               : 4:2:0
Bit depth                        : 8 bits
Scan type                        : Progressive
Bits/(Pixel*Frame)               : 0.107
Stream size                      : 1.28 GiB (86%)
Writing library                  : x264 core 80 r1376M 3feaec2

Audio #1
ID                               : 2
Format                           : MPEG Audio
Format version                   : Version 1
Format profile                   : Layer 3
Mode                             : Joint stereo
Mode extension                   : MS Stereo
Codec ID                         : A_MPEG/L3
Codec ID/Hint                    : MP3
Duration                         : 1h 40mn
Bit rate mode                    : Constant
Bit rate                         : 128 Kbps
Channel(s)                       : 2 channels
Sampling rate                    : 48.0 KHz
Video delay                      : 2s 700ms
Stream size                      : 91.6 MiB (6%)

Audio #2
ID                               : 3
Format                           : MPEG Audio
Format version                   : Version 1
Format profile                   : Layer 3
Mode                             : Joint stereo
Mode extension                   : MS Stereo
Codec ID                         : A_MPEG/L3
Codec ID/Hint                    : MP3
Duration                         : 1h 39mn
Bit rate mode                    : Constant
Bit rate                         : 128 Kbps
Channel(s)                       : 2 channels
Sampling rate                    : 48.0 KHz
Video delay                      : 2s 600ms
Stream size                      : 91.5 MiB (6%)
Writing library                  : LAME3.97 
Encoding settings                : -m j -V 4 -q 2 -lowpass 17 -b 128


ScreenShots:
 
http://img801.imageshack.us/img801/184/catwoman194257.png
 
http://img826.imageshack.us/img826/9662/catwoman194537.png
 
http://img826.imageshack.us/img826/1896/catwoman194931.png
 
http://img225.imageshack.us/img225/5264/catwoman195813.png
 
http://img337.imageshack.us/img337/4021/catwoman193957.png

Poster:
 
http://img225.imageshack.us/img225/2407/33dh9cljpg.png